<svg width="209" height="139" viewBox="0 0 209 139" fill="none" xmlns="http://www.w3.org/2000/svg">
<path d="M86.902 26.6086C85.2148 27.0701 83.5139 28.3597 82.7383 29.7714C81.9219 31.2645 81.9627 30.0564 81.9627 53.3634C81.9627 67.1276 82.0172 74.9464 82.0988 75.4079C82.4934 77.4576 84.0718 79.2766 86.1536 80.0639L86.9292 80.3625L100.781 80.4032C115.939 80.4439 115.463 80.4575 116.987 79.6431C117.612 79.3037 119.381 77.5526 119.381 77.2811C119.381 77.2133 119.218 77.1861 119.014 77.2268C118.796 77.2811 111.625 77.3219 103.053 77.3219C85.8135 77.3354 87.0381 77.4033 85.9631 76.4667C85.6774 76.2224 85.31 75.7201 85.1467 75.34L84.8202 74.6613V53.4177V32.174L85.1467 31.4953C85.5277 30.6809 86.0448 30.1786 86.8612 29.8121C87.4054 29.5678 87.7592 29.5271 90.0996 29.5271C92.0862 29.5271 92.7393 29.5678 92.7665 29.6899C92.8073 29.785 92.8618 30.0429 92.9162 30.2465C92.957 30.4637 93.2291 30.8845 93.5285 31.1967L94.0592 31.7668L100.795 31.8075C106.496 31.8347 107.598 31.8075 107.924 31.6446C108.387 31.4003 108.986 30.5723 109.108 29.9614L109.203 29.5271H111.802C114.034 29.5271 114.497 29.5678 114.959 29.785C115.721 30.1243 116.347 30.6944 116.701 31.346L117 31.9025L117.041 42.2189L117.068 52.5489L118.211 52.7797C118.837 52.9018 119.504 53.0104 119.708 53.0104H120.062V42.5176C120.062 30.9659 120.089 31.4139 119.204 29.7578C118.429 28.2918 116.551 26.9344 114.782 26.5543C114.279 26.4457 110.142 26.405 100.835 26.4186C89.9091 26.4186 87.4871 26.4593 86.902 26.6086Z" fill="#463C33"/>
<path d="M98.2908 37.1829C93.7461 37.8344 89.909 41.2687 88.5619 45.884C88.3851 46.5219 88.1946 47.4314 88.1401 47.9065C88.0585 48.721 88.0721 48.8024 88.3987 49.1282C88.8613 49.5897 89.5688 49.6033 90.0451 49.1689C90.3172 48.9382 90.4533 48.5852 90.671 47.5807C90.8479 46.6984 91.1608 45.8568 91.6371 44.893C92.2086 43.7257 92.5079 43.3049 93.4332 42.3682C94.3176 41.4723 94.7802 41.133 95.7055 40.685C97.42 39.8434 98.3316 39.6398 100.332 39.6534C101.869 39.6534 102.155 39.6941 103.216 40.0742C104.727 40.59 105.693 41.1737 106.877 42.2596C108.36 43.6306 109.421 45.436 109.938 47.4721C110.074 48.0287 110.169 49.2096 110.21 50.8385C110.265 53.3226 110.278 53.3498 110.619 53.6484C111.095 54.0692 111.802 54.0692 112.238 53.6213C112.578 53.2955 112.578 53.2683 112.578 50.8657C112.578 47.2414 112.156 45.3274 110.85 43.1148C110.169 41.961 108.156 39.8706 106.972 39.0833C104.482 37.4272 101.366 36.7485 98.2908 37.1829Z" fill="#463C33"/>
<path d="M98.4674 41.7981C97.134 42.1239 95.9774 42.8026 94.8752 43.9021C93.6234 45.1645 92.9295 46.4812 92.6301 48.1509C92.3308 49.7798 92.0722 50.5671 91.5416 51.2865C91.0653 51.9516 90.0176 52.6439 89.1468 52.8747C88.5753 53.0376 88.0854 53.5806 88.0854 54.0557C88.0854 54.2457 88.2623 54.5715 88.5073 54.8022C88.8882 55.1823 88.9699 55.2095 89.6366 55.1416C90.453 55.0601 92.0314 54.3271 92.7662 53.6891C93.8003 52.7797 94.467 51.3544 94.8208 49.3318C95.1338 47.54 95.6916 46.3862 96.6849 45.4767C97.7735 44.4994 98.794 44.1193 100.332 44.1193C101.352 44.1193 101.597 44.1736 102.4 44.5537C105.244 45.8975 106.278 48.8024 105.366 52.9697C104.713 55.9153 103.053 58.9559 100.889 61.155C98.794 63.2725 96.6033 64.5621 93.5146 65.4851C91.596 66.0553 91.215 66.2996 91.215 66.9512C91.215 67.4941 91.909 68.0778 92.5485 68.0778C93.7595 68.0778 97.0659 66.8969 98.8756 65.8109C103.189 63.2047 106.468 58.7659 107.598 53.9471C108.564 49.9019 108.183 46.9971 106.359 44.5944C105.393 43.3049 103.543 42.1239 101.951 41.7574C101.148 41.5674 99.3382 41.5945 98.4674 41.7981Z" fill="#463C33"/>
<path d="M99.1206 46.2776C97.8824 46.7256 97.0524 47.9608 96.7938 49.7526C96.4537 52.1145 95.855 53.5398 94.644 54.8022C93.3785 56.1325 92.0587 56.8519 89.936 57.3542C88.6706 57.6664 88.3032 57.9515 88.3032 58.6573C88.3032 59.336 88.8339 59.7975 89.6231 59.7975C90.9565 59.784 93.3105 58.9288 94.78 57.9243C95.4332 57.4764 96.8075 56.1189 97.2157 55.5081C98.1409 54.1507 98.7532 52.4539 99.107 50.2006C99.3111 48.9382 99.6377 48.5038 100.304 48.5581C101.053 48.626 101.366 49.1418 101.325 50.2684C101.27 52.0467 100.563 54.1507 99.4472 55.8882C98.5491 57.2727 96.4401 59.3089 95.1066 60.0555C93.7868 60.802 91.9498 61.4943 90.5619 61.7794C89.3237 62.0373 88.9019 62.3495 88.9019 63.0146C88.9019 63.7205 89.4054 64.1413 90.2218 64.1413C91.5961 64.1413 94.4263 63.2318 96.1135 62.2409C99.9642 59.9876 102.427 56.6076 103.461 52.1553C104.155 49.1418 103.488 47.1192 101.515 46.2912C100.93 46.0469 99.7737 46.0333 99.1206 46.2776Z" fill="#463C33"/>
<path d="M114.551 55.576C112.551 56.1189 111.231 56.9198 109.829 58.4265C106.427 62.0916 106.441 68.2 109.87 71.9465C111.979 74.2269 115.041 75.3536 118.252 74.9871C120.647 74.7292 122.171 73.9826 123.953 72.218C125.736 70.4397 126.579 68.7158 126.878 66.2046C127.11 64.1549 126.62 61.8065 125.599 60.069C124.974 59.0102 123.3 57.3678 122.157 56.7026C120.511 55.7524 119.327 55.4266 117.272 55.3588C115.843 55.3316 115.326 55.3588 114.551 55.576ZM122.239 61.3586C122.524 61.5079 122.66 61.6979 122.728 62.0373C122.837 62.6346 122.701 62.8382 121.082 64.6164C120.402 65.363 119.218 66.6797 118.442 67.5348C116.469 69.7339 116.075 69.9782 115.163 69.5031C114.741 69.2859 112.238 66.5982 111.666 65.7566C111.272 65.1729 111.34 64.6843 111.857 64.277C112.537 63.7476 112.795 63.8834 114.374 65.5123C115.748 66.9376 115.857 67.019 116.075 66.8154C116.211 66.6932 117.272 65.5394 118.429 64.2363C120.538 61.888 121.3 61.155 121.653 61.155C121.762 61.155 122.021 61.25 122.239 61.3586Z" fill="#463C33"/>
<path d="M104.005 64.372C103.897 64.4263 103.298 64.9014 102.686 65.458C102.06 66.0009 101.121 66.734 100.59 67.0869C99.6649 67.6706 96.685 69.1637 96.4129 69.1637C96.1952 69.1637 95.8414 69.6524 95.7598 70.0868C95.6917 70.4397 95.7462 70.5755 96.0999 70.942C96.4945 71.3356 96.5898 71.3628 97.1749 71.2949C99.42 71.0234 104.904 67.4262 105.502 65.8245C105.856 64.915 104.917 64.0191 104.005 64.372Z" fill="#463C33"/>
<path d="M67.2537 95.6878C62.6683 96.6516 59.8108 100.927 60.4367 105.868C60.8858 109.398 62.886 111.909 66.206 113.117C67.1041 113.443 67.3762 113.484 69.1043 113.484C71.2269 113.484 71.744 113.361 73.4584 112.493C74.7102 111.841 76.2614 110.294 76.969 108.977C78.3569 106.371 78.3841 103.018 77.0506 100.262C76.0301 98.1854 73.9347 96.4479 71.6895 95.8507C70.533 95.5385 68.3559 95.457 67.2537 95.6878ZM71.4174 99.4207C72.4379 99.9229 73.091 100.615 73.7033 101.878C74.1252 102.733 74.1388 102.814 74.1388 104.525C74.1388 106.249 74.1252 106.316 73.6761 107.28C72.8053 109.113 71.2269 110.158 69.2948 110.185C67.6347 110.199 66.0699 109.438 65.1991 108.19C64.2058 106.737 63.8929 104.077 64.5188 102.353C65.3896 99.9772 67.0496 98.8234 69.4172 98.9456C70.3425 98.9863 70.7099 99.0813 71.4174 99.4207Z" fill="#463C33"/>
<path d="M105.366 95.5792C104.196 95.7828 103.026 96.1222 102.455 96.4072C100.359 97.466 98.7944 99.4207 98.0732 101.878C97.7194 103.113 97.7194 106.072 98.0596 107.239C99.0257 110.429 101.271 112.628 104.278 113.334C105.394 113.606 107.462 113.606 108.673 113.348C111.558 112.737 114.075 110.362 114.946 107.443C115.762 104.742 115.313 101.47 113.857 99.2714C112.755 97.6289 110.945 96.3258 109.081 95.8507C108.224 95.6199 105.992 95.4706 105.366 95.5792ZM108.156 99.1764C109.979 99.7329 111.258 101.457 111.53 103.71C111.857 106.344 110.864 108.597 108.877 109.696C108.197 110.063 108.061 110.09 106.659 110.09C105.366 110.09 105.067 110.049 104.523 109.778C102.482 108.773 101.42 106.71 101.597 104.05C101.842 100.262 104.741 98.1176 108.156 99.1764Z" fill="#463C33"/>
<path d="M43.4556 104.525V113.28H45.2925H47.1294V109.615V105.95H50.5991H54.0688V109.615V113.28H55.9738H57.8787V104.525V95.7692H55.9738H54.0688V99.1628V102.556H50.5991H47.1294V99.1628V95.7692H45.2925H43.4556V104.525Z" fill="#463C33"/>
<path d="M80.5747 95.8507C80.5066 95.905 80.4658 99.855 80.4658 104.633V113.307L84.7928 113.253C89.5688 113.185 89.732 113.158 91.5553 112.221C94.7257 110.565 96.3721 106.71 95.6374 102.638C95.0523 99.3392 92.916 96.9502 89.7865 96.095C89.1333 95.9185 88.1128 95.8507 84.82 95.8099C82.534 95.7692 80.6291 95.7964 80.5747 95.8507ZM89.0381 99.4071C90.562 99.9093 91.6506 101.457 91.9091 103.52C92.1813 105.665 91.6642 107.429 90.4124 108.651C89.3646 109.669 88.5891 109.914 86.2215 109.995L84.2757 110.049V104.592V99.1356L86.4256 99.2035C87.5958 99.2306 88.7796 99.3257 89.0381 99.4071Z" fill="#463C33"/>
<path d="M117.612 104.511V113.28H119.517H121.436L121.395 110.226L121.354 107.172H122.538H123.708L125.314 110.226L126.933 113.28H129.001C130.144 113.28 131.083 113.253 131.083 113.226C131.083 113.144 127.545 106.995 127.396 106.819C127.3 106.71 127.491 106.534 127.981 106.249C128.851 105.76 129.79 104.783 130.144 103.995C130.28 103.669 130.471 102.977 130.566 102.448C130.974 100.059 129.872 97.561 127.967 96.5973C126.715 95.9457 126.076 95.8642 121.735 95.8099L117.612 95.7421V104.511ZM125.3 99.3121C126.076 99.5021 126.661 100.086 126.851 100.873C127.164 102.081 126.702 103.154 125.668 103.669C125.11 103.941 124.783 103.982 123.137 104.022C121.422 104.063 121.259 104.05 121.341 103.846C121.381 103.724 121.422 102.611 121.422 101.389V99.1628H123.069C123.967 99.1628 124.974 99.2307 125.3 99.3121Z" fill="#463C33"/>
<path d="M138.512 95.8914C138.471 95.9457 137.764 97.8597 136.947 100.127C136.131 102.393 134.838 105.963 134.076 108.054C133.314 110.144 132.58 112.18 132.444 112.561L132.185 113.28H134.117H136.049L136.662 111.475L137.274 109.683L140.553 109.642L143.832 109.615L144.418 111.271C144.731 112.194 145.016 113.022 145.043 113.104C145.071 113.239 145.601 113.28 147.044 113.28H149.003L147.656 109.574C146.921 107.552 145.479 103.602 144.458 100.819L142.608 95.7692H140.594C139.492 95.7692 138.553 95.8235 138.512 95.8914ZM141.696 103.181C142.295 104.959 142.785 106.466 142.785 106.52C142.785 106.588 141.764 106.629 140.526 106.629C138.771 106.629 138.281 106.588 138.335 106.452C138.363 106.371 138.866 104.837 139.451 103.059C140.036 101.28 140.54 99.8551 140.567 99.8822C140.594 99.9229 141.097 101.403 141.696 103.181Z" fill="#463C33"/>
<path d="M150.949 104.525V113.28H152.786H154.623V109.629C154.623 106.656 154.663 105.963 154.813 105.909C155.044 105.814 155.602 106.411 157.153 108.393C157.834 109.248 158.895 110.592 159.507 111.38C160.133 112.167 160.718 112.913 160.814 113.049C160.963 113.266 161.208 113.28 163.317 113.253L165.658 113.212L164.8 112.194C164.324 111.637 162.895 109.886 161.63 108.325C160.365 106.751 159.072 105.163 158.759 104.796L158.174 104.104L159.222 102.882C160.147 101.796 163.834 97.4524 164.868 96.2172L165.249 95.7692H163.045H160.854L160.337 96.3393C159.902 96.8416 158.269 98.7963 155.466 102.176C155.112 102.597 154.786 102.95 154.731 102.95C154.663 102.964 154.623 101.348 154.623 99.3664V95.7692H152.786H150.949V104.525Z" fill="#463C33"/>
</svg>
